<?xml version="1.0" encoding="UTF-8"?>
<svg width="100px" height="187px" viewBox="0 0 100 187" version="1.1" xmlns="http://www.w3.org/2000/svg" xmlns:xlink="http://www.w3.org/1999/xlink">
    <!-- Generator: Sketch 57.1 (83088) - https://sketch.com -->
    <title>karmen-logo</title>
    <desc>Created with Sketch.</desc>
    <g id="Page-1" stroke="none" stroke-width="1" fill="none" fill-rule="evenodd">
        <g id="karmen-logo" transform="translate(-4.000000, -5.000000)" fill="#EA262D" fill-rule="nonzero">
            <path d="M21.016317,5 L38.265734,15.722611 L38.965035,65.13986 L52.484848,73.531469 L52.484848,71.200466 L69.501166,60.710956 L69.501166,56.981352 L86.983683,46.025641 L104,56.515152 L104,82.389277 L88.149184,92.412587 L88.149184,96.142191 L71.599068,106.631702 L71.599068,110.128205 L88.149184,120.617716 L88.149184,144.86014 L104,154.88345 L104,180.757576 L86.983683,191.247086 L69.734266,180.524476 L69.501166,156.048951 L52.951049,145.792541 L52.951049,121.083916 L38.965035,112.459207 L38.498834,139.498834 L21.249417,150.221445 L4,139.731935 L4,15.48951 L21.016317,5 Z M102.368298,157.447552 L88.149184,166.305361 L88.149184,188.682984 L102.368298,179.592075 L102.368298,157.447552 Z M86.983683,146.258741 L72.298368,155.582751 L86.983683,164.90676 L102.135198,155.582751 L86.983683,146.258741 Z M85.818182,122.482517 L71.599068,131.340326 L71.599068,153.951049 L85.818182,145.09324 L85.818182,122.482517 Z M36.867133,116.188811 L21.948718,125.04662 L21.948718,147.657343 L36.867133,138.799534 L36.867133,116.188811 Z M70.666667,111.526807 L55.515152,120.850816 L70.433566,129.941725 L85.585082,120.850816 L70.666667,111.526807 Z M21.948718,101.969697 L21.948718,122.715618 L36.867133,114.090909 L36.867133,111.060606 L21.948718,101.969697 Z M55.282051,98.240093 L55.282051,118.986014 L69.501166,110.128205 L69.501166,106.864802 L55.282051,98.240093 Z M71.599068,83.787879 L71.599068,104.7669 L85.818182,95.909091 L85.818182,92.412587 L71.599068,83.787879 Z M52.484848,77.494172 L38.965035,85.885781 L52.484848,94.277389 L52.484848,77.494172 Z M102.368298,58.846154 L88.149184,67.703963 L88.149184,90.314685 L102.368298,81.456876 L102.368298,58.846154 Z M37.566434,66.305361 L23.114219,75.39627 L23.114219,76.095571 L37.566434,84.72028 L52.484848,75.629371 L37.566434,66.305361 Z M69.501166,63.041958 L55.515152,71.666667 L69.501166,80.291375 L69.501166,63.041958 Z M36.867133,42.296037 L21.948718,51.386946 L21.948718,73.531469 L36.867133,64.67366 L36.867133,42.296037 Z M86.983683,47.890443 L72.065268,57.214452 L86.983683,66.305361 L101.668998,57.214452 L86.983683,47.890443 Z M36.167832,18.053613 L21.948718,26.911422 L21.948718,49.522145 L36.867133,40.198135 L36.167832,18.053613 Z M21.249417,6.864802 L6.331002,16.188811 L21.016317,25.27972 L35.934732,16.188811 L21.249417,6.864802 Z" id="red-frame"></path>
        </g>
    </g>
</svg>